<?xml version="1.0" encoding="UTF-8" standalone="no"?>
<svg width="100" height="100" viewBox="0 0 100 100" xmlns="http://www.w3.org/2000/svg">
  <circle cx="50" cy="40" r="30" fill="#0f0f0f" stroke="#FFD700" stroke-width="3"/>
  <path d="M50,20 C60,20 70,30 70,40 C70,50 60,60 50,60 C40,60 30,50 30,40 C30,30 40,20 50,20 Z" fill="none" stroke="#FFD700" stroke-width="2"/>
  <circle cx="50" cy="25" r="4" fill="#00FFC8"/>
  <circle cx="65" cy="40" r="4" fill="#00FFC8"/>
  <circle cx="50" cy="55" r="4" fill="#00FFC8"/>
  <circle cx="35" cy="40" r="4" fill="#00FFC8"/>
  <line x1="50" y1="25" x2="65" y2="40" stroke="#00FFC8" stroke-width="2"/>
  <line x1="65" y1="40" x2="50" y2="55" stroke="#00FFC8" stroke-width="2"/>
  <line x1="50" y1="55" x2="35" y2="40" stroke="#00FFC8" stroke-width="2"/>
  <line x1="35" y1="40" x2="50" y2="25" stroke="#00FFC8" stroke-width="2"/>
  <line x1="50" y1="25" x2="50" y2="55" stroke="#00FFC8" stroke-width="2"/>
  <text x="50" y="80" font-family="Arial, sans-serif" font-size="10" font-weight="bold" fill="#00FFC8" text-anchor="middle">CASINOFOUND</text>
  <text x="50" y="90" font-family="Arial, sans-serif" font-size="8" font-weight="bold" fill="#FFD700" text-anchor="middle">CFD</text>
</svg>

